<?xml version="1.0" encoding="utf-8"?>
<svg id="presto" data-name="presto" xmlns="http://www.w3.org/2000/svg" version="1.1" viewBox="0 0 1536 1536">
  <defs>
    <style>
      .st0 {
        fill: #fff;
      }
    </style>
  </defs>
  <path d="M234.3,511.02c-1.66,13.11-11.91,23.54-18.17,20.55-5.68-2.72-2.56-12.62,1.73-20.7,2.32-4.38,6.51-8.52,12.25-7.84,2.58.31,4.55,5.11,4.18,8Z"/>
  <path d="M1211.98,956.52c-2.03,4.51-7.98,7.95-11.8,4.14s-.39-10.31,4.06-12.5c2.17-1.07,5.38-.95,6.82.23,2.36,1.94,2.36,4.93.92,8.12Z"/>
  <path d="M439.72,1295.18c-1.11,5.05-6.94,4.46-10.19,2.32-2.45-1.61-4.02-4.03-3.61-6.93.28-2.01,3.39-4.41,5.91-4.32,4.25.15,8.89,4.35,7.89,8.92Z"/>
  <path d="M596.81,326.21c-3.04,2.69-7.52,3.35-10.91,1.86-.99-.44-2.6-2.61-2.66-3.69-.23-3.76,5.99-7.29,12.1-4.77,2.25.93,3.49,4.82,1.48,6.6Z"/>
  <circle cx="268.43" cy="1169.52" r="4.35"/>
  <path d="M209.44,566.02c.46,3.53-3.21,8.49-6.74,5.99-1.78-1.26.45-6.77,2.47-7.6l2.39-.97c.68-.28,1.78,1.81,1.88,2.59Z"/>
  <g>
    <path d="M1141.69,1058.99l6.53-12.94c-2.09-5.13-1.59-10.03,1.5-14.39,6.21-8.77,18.05-15.09,24.26-10.19,5.79,4.57,1.02,24.09-17.54,29.1-5.38,1.45-8.82,4.98-14.75,8.42Z"/>
    <path d="M1237.88,789.19c-2.56,6.3-6.57,10.93-11.91,14.64-4.94-6.65-3.96-14.61.36-20.41l9.89-13.29.84,8.99c.26,2.8,2.09,6.93.82,10.07Z"/>
    <g>
      <path d="M562.9,1049.48c-7.29-5.69-15.55-5.28-24.92-5.06,7.79-6.4,18.32-6.94,26.83-4.4,8.66,2.58,14.37,8.4,17.57,16.68s14.13-.88,28.1,9.94c8.64-15.15,23.47-23.05,40.49-24.08,26.36-1.59,48.78,15.42,54.12,41.65,6.57-.36,13.39-1.36,19.46.23,12.95,3.39,20.46,14.07,23.17,27.66l52.16-30.26c18.69-12.28,35.52-25.87,52.15-40.79l36.37-35.45c-8.33,15.09-18.8,27.42-29.94,39.92l-26,26.02c-39.67,36.14-87.45,61.07-139.77,73.06-15.04,3.45-29,6.78-44.27,7.03l23.95-7.42c23.99-7.43,46.52-17.17,69.5-29.05-6-13.86-21.53-21.93-36.15-16.34l-9.05,4.81c-1.62-8.47-3.05-15.98-7.08-23.34-8.41-15.33-25.05-23.55-42.3-21.74-16.72,1.76-29.92,12.55-37.03,29.83-7.97-15.95-23.5-21.36-38.8-12.5,1.67-11.17-.23-19.89-8.57-26.41Z"/>
      <path d="M868.83,1129.56c6.56-8.6,15.03-14.01,22.48-21.29l30.57-30.49c40.79-45.53,67.63-84.95,92.96-140.82l16.85-37.16c4.19-9.25,9.15-17.59,16.75-24.37,1.82-1.63,7.3-4.1,8.79-1.75,3.75,5.9,2.41,14.11.07,20.61-21.61,60.06-73.47,129.79-117.66,176.23l-19.56,18.63c-15.78,15.03-32.87,27.83-51.24,40.42Z"/>
      <path d="M978.63,868.59l31.12-18.91c22.99-13.97,44.04-29.88,64.07-47.74l14.61-14.49c7.47-7.41,14.13-14.75,19.18-25.02l-25.4,11.04c1.4-4.86,5.41-7.76,9.37-10.87l40.13-31.52,3.3,9.34c2.77,3.31,7.96,3.48,13.82,3.85-4.84,8.48-11.32,14.65-18.11,21.58-37.28,38.08-79.93,69.27-127.65,93.02l-23.63,11.15-.82-1.42Z"/>
      <path d="M904.55,833.1c-24.41,12.74-45.69,27.37-68.2,44.53,1.9-5.93,7.26-10.1,12.33-13.96l39.75-30.27,53.39-32.56,21.38-14.7c2.59-1.78,7.6-2.32,9.54.02-1.82,14.65-22.53,23.11-36.97,30.65l-31.22,16.29Z"/>
      <path d="M772.02,1038.26c5.52-9.56,15.05-15.02,21.48-23.7l9.87-13.32c3.53-4.76,14.38-11.62,17.3-9.37,4.31,3.33-5.02,17.97-13.79,24.03-11.04,8.03-21.56,15.81-34.86,22.37Z"/>
      <path d="M518.88,1114.25l-10.9.84c-3.89.3-7.22-.53-10.5-2.45l-21.52-12.62c-.11-3.49,1.95-7.45,5.04-8.65l45.52,21.22-7.64,1.66Z"/>
      <path d="M505.73,1127.42c-14.91-1.23-26.98-6.99-40.22-11.94-.13-1.78.12-3.87.88-4.78s3.78-.72,4.91-.12c11.46,6.04,22.98,9.66,34.44,16.84Z"/>
      <path d="M410.13,1025.93c.77.87.08,4.41-.87,5.04-1.14.76-3.91.25-5.15-1.12l-16.5-18.2c-.55-.61-.46-3.2.28-3.45,4.54-1.48,16.06,10.72,22.25,17.73Z"/>
      <path d="M1016.77,804.35c2.21,7.21-11.56,13.83-22,15.96,5.5-12.06,19.63-23.68,22-15.96Z"/>
      <path d="M377.82,1055.74c.7.8-.91,3.73-1.85,3.95-1.14.27-4.08.11-4.84-.79l-11.79-13.87c-.54-.63-.39-3.39.1-3.97,2.4-2.85,7.7,2.49,12.08,7.48l6.31,7.19Z"/>
      <g>
        <path d="M476.17,1257.13c28.26,20.36,59.95,35.07,92.83,47.88,62.81,24.49,125.07,36.51,192.83,37.43-4.03,1.54-8.82,2.51-12.82,2.5l-55.08-.1c-34.36-2.23-67.71-7.38-100.99-15.8-34.55-8.75-66.59-21.21-98.85-36.07-30.06-13.85-57.73-30.34-84.9-49.1-46.38-32.03-85.76-71.34-117.84-117.61.98-3.68,6.72-7.43,9.41-5.26l17.39,14.07-9.67-15.55c-.52-.83-.5-3.21-.27-5.24l12.91,9.69c16.93,12.7,33.88,24.63,53.3,33.5,21.72,9.92,43.63,16.75,66.43,23.69,14.57,4.43,28.65,7.86,43.12,9.62l-26.74-12.97c-13.31-6.46-26.07-12.86-37.92-23.35,5.22,1.21,9.74,3.19,14.82,5.52,62.63,28.78,134.49,40.43,202.06,27.35l-23.2-1.5c-32.59-2.11-64.33-7.5-95.11-18.57-14.24-5.13-28.3-10.11-40.55-19.52,34.96,11.6,68.22,20.44,104.09,22.54l42.95-.04c25.29-1.85,49.62-5.12,74.23-11.8,33.52-9.1,65.11-22.26,95-39.79,53.36-31.29,102.62-74.51,137.51-125.41l19.88-29.01.95,1.63c-17.52,37.8-40.48,71.82-68.47,102.61l-31.48,31.59c-58.03,52.39-128.36,88.24-204.74,105.08-24.53,5.41-48.53,7.98-73.48,9.65-24.75,1.66-48.33-.16-72.99-3.47-41.14-5.53-80.36-17.18-117.31-35.57l-17.47-8.69-1.51-.87c-.2-.11.09.23.48.76,12.44,12.69,26.75,21.69,42.37,29.68l31.23,13.95c21.85,8.45,43.91,15.01,67.55,16.83l42.18-.65-8.61-3.63,23.53-.92c39.45-.38,77.92-3.83,116.31-13.71l43.04-11.08c-23.99,12.3-48.02,20.38-73.17,26.93l-67.52,13.27,16.24.71,17.96-.76c30.56-1.29,59.77-7.44,89.55-15.14,41.52-10.74,80.67-27.14,118.6-47.35,47.55-25.34,90.32-57.61,130.15-93.48l15.71-14.64,40.35-40.39,17.63-18.65c29.36-31.06,55.44-64.57,80.25-99.61,32.14-45.39,59.58-92.93,82.15-143.6l13.18-28.17c-2.72,16.1-8.11,30.91-13.51,46.6-32.91,95.5-102.84,207.4-174.15,278.7l-18.08,18.08-15.34,14.74c-25.31,22.57-51.62,43-79.59,62.27l-51.22,32,42.33-19.96c25.21-13.4,48.5-28.5,71.55-45.32l39.09-31.85c3.14-2.56,5.71-4.97,9.86-6.91-5.63,10.52-13.2,18.32-20.64,27.04l-17.5,20.49c11.18-5.56,19.69-12.66,28.48-20.51l20.66-18.43,42.44-42.4,37.72-43.4c30.84-37.34,55.85-76.79,79.95-120.36-10.94,34.73-28.51,66.77-47.02,98.31-17.53,29.88-36.95,57.45-59.18,83.75-1.62,1.92-2.8,5.09-3.4,7.21,6.54,3.28,12.76,5.68,17.47,10.74,16.63,17.85,15.11,40.69-.6,58.82l1.65,9.06c5,17.69-.81,34.51-14.75,45.71-9.81,7.88-21.99,11.34-35.29,7.88-4.75,30.52-31.75,52.08-62.67,49.38-14.24-1.24-27.05-8.54-36.72-18.8,3.97-7.63,12.28-8.04,18.72-4.22,9.37,5.55,19.45,8.33,30.32,6.06,27.79-5.82,42.01-31.57,39.21-60.02,6.72,11.85,17.42,15.25,28.69,10.99,14.62-5.53,21.38-20.27,15.56-34.95-1.81-4.56-4.01-8.36-9.64-10.27,8.16-5.07,14.56-10.43,18.09-18.76,5.72-13.51-.05-29.91-14-35.31-10.43-4.04-22.52-.91-30.32,6.89-5.66,5.66-8.16,13.26-10.36,20.75-1.8,6.13-1.11,11.32,1.94,17.6-18.03-3.34-30.1,4.05-37.19,20.73-8.77-13.2-22.53-12-35.18-3.86-17.71,11.38-8.46,23.77-18.24,28.76-8.74,4.46-8.87,10.82-13.48,12.18-1.24.36-3.83-1.48-4.44-2.74-1.88-3.86-1.24-8.6,1.59-11.66l8.32-9.03,3.05-8.91c.06-1.55-.34-1.75-1.02-.24l-8.61,5.96c-24.68,17.09-49.97,31.72-77.11,44.88-68.15,33.04-132.3,47.07-207.75,49.56l-20.76.69c-1.52-.25-1.81.05-.06.95l38.94,4.95,50.59.06c48.64-2.47,95.08-12.28,142.42-26.83-5.17,5.5-12.32,7.93-19.11,10.89-23.32,10.16-46.77,17.8-71.47,24.51-26.69,7.25-53.3,11.08-80.97,12.81l-48.73-.05c-39.21-1.9-76.8-8.75-114.13-20.63l-43.89-13.96Z"/>
        <path d="M861.08,1288.77c-24.21,7.39-47.3,12.91-71.92,16.45-17.33,2.46-34.38,5.83-51.77,2.76,39.35-6.62,76.24-14.77,113.16-27.47l82.38-33.81c.88-.19,4.4-.17,4.14.69l-1.12,3.71c-11.35,8.54-22.96,15.76-35.71,22.12-12.33,7.11-25.06,11.25-39.16,15.56Z"/>
        <path d="M393.46,1258.07c3.24,2.55,5.55,8.08,4.26,11.61-1.46,4-7.72,4.69-11.12,2.65-7.68-4.6-14.42-9.85-20.9-16.1-17.2-16.57-32.51-33.91-46.98-52.92-10.13-13.57-20.5-25.93-28.04-41.84l27.47,30.36,20.81,21.28,37.96,31.95,16.53,13Z"/>
        <path d="M561.22,1133.29c-10.14-8.13-24.42-6-35.14.41-.96-1.38-2.23-3.84-2.19-5.01.17-5.01,12.73-9.23,20.37-11.14l-2.67-1.54c7.42-.43,13.06.23,19.4,3.08,7.71,3.47,10.57-12.02,28.59-16.46,16.66-4.11,36.65,4.77,39.85,23.25-10.05-9.34-19.58-14.88-32.51-13.94-7.37.53-13.96,3.33-18.61,9.42-5.95,4.43-8.07,10.61-8.89,18.5l-8.2-6.58Z"/>
        <path d="M941.53,1209.57c-12.43,8.84-24.31,17.52-38.78,23.72l17.83-15.78c8.77-7.77,16.93-15.59,26.7-22.21,2.95-1.99,6.68-2.4,10.34.12-4.74,5.69-10.16,9.92-16.1,14.14Z"/>
        <path d="M982.98,1230.47l18.47-12.82c-2.9,7.42-9.98,12.28-18.47,12.82Z"/>
      </g>
      <path d="M506.35,1071.44c-7.32-.11-14.56-4.83-12.13-5.74,3.18-1.19,7.97,1.94,12.13,5.74Z"/>
      <path class="st0" d="M724.85,824.01c18.1-18.71,40.8-30.23,65.29-37.84,38.5-11.96,75.85-26.31,103.82-56.47-3.09,9.82-9.14,17.22-15.63,24.66l-18.4,17.03c33.55-11.22,66.64-34.52,82.94-65.56-7.44,52.18-37.65,66.41-82.94,82.15-13.08,4.54-25.87,7.62-39.67,9.3l-52.27,9.58c-15.53,2.85-29,9.7-43.13,17.14Z"/>
      <path class="st0" d="M580.91,717.43c-19.96,17.56-33.42,38.39-45.1,61.96,8.35-39.55,33.51-72.53,67.09-93.41,16.01-9.95,32.51-17.08,50.55-22.46s35.07-10.28,53.85-13.45c-27.21,10.27-53.57,20.14-79.06,34.1-17.13,9.61-32.83,19.41-47.34,33.27Z"/>
      <path class="st0" d="M443.21,906.34c-19.09,8.83-39.65,1.16-53.23,12.66l-25.26,24.99,22.31-32.98c2.4-3.55,6.57-5.04,10.91-5.27l22.11,1.54,23.17-.95Z"/>
    </g>
    <g>
      <g>
        <path class="st0" d="M869.51,346.89c-19.88.33-38.09-1.99-56.94-5.39-17.81-5.26-34.65-11.13-50.76-20.36-17.83-10.21-34.7-20.69-51.46-32.44l-15-11.9c45.23-4.67,82.64-3.18,124.84,13.96,22.05,8.96,43.08,18.78,62.91,31.92-18.23-4.97-36.26-9.33-54.41-8.1,34.69,11.05,67.43,22.51,100.07,38.28-20.56-3.54-38.61-6.32-59.25-5.97Z"/>
        <path class="st0" d="M1067.72,398.23c-11.46,5.02-23.29.62-28.92-10.09-2.07-3.92-4.41-6.93-7.97-10.98,4.47-2.46,10.07-5.07,15.59-6.7,11.5-3.4,23.32,1.66,29.19,11.91l9.08,15.86c-6.42-1.51-11.39-2.44-16.96,0Z"/>
        <path class="st0" d="M984.26,453.14c5.22,9.86,11.59,18.88,21.71,24.87,14.25,9.85,30.66,12.15,48.65,12.39-22.99,7.87-50.14,5.88-71.42-6.55-15.42-9.01-21.82-27.85-20-44.99,3.36,11.26,6.91,22.77,15.42,31.47,6.47,6.61,13.71,12.33,22.73,15.87-8.66-9.58-15.72-19.42-17.09-33.06Z"/>
      </g>
      <path d="M358.1,1132.75l2.79-10.78c18.09,7.31,38.01.31,45.33-18.15-11.82,10.64-29.04,14.24-43.25,7.28,5.34-15.03,11.39-30.99,24.74-38.4,37.61-23.43,66.62-66.86,86.45-107.22,40.18,1.7,80-5.03,116.03-23.35,37.13-18.88,65.65-51.47,87.25-86.54,7.03-11.42,12.6-22.79,20.84-33.31,20.93-26.73,53.02-40.26,84.94-49l-20.49,1.48c-24.79,1.79-45.73,12.15-66.45,28.65l5.23-36.52c1.28-8.95.17-17.81-.93-27.04-2.51,16.48-5.16,32.63-11.22,48.5l-13.02,34.06c-24.89,50.31-60.46,94.63-114.19,114.66-51.56,19.22-91.86,9.76-127.34,18.81-18.01,4.6-34.12,12.72-48.12,24.77-5.89,5.07-11.15,9.97-16.03,16.09-13.07,16.37-24.97,32.93-36.14,50.74-9.05,14.44-18.89,27.16-30.11,39.92-12.34,14.04-31.17,28.41-50.59,25.89,12.86-7.89,24.36-15.18,30.17-29.01-15.92,14.36-38.1,28.93-60.84,25.45,1.52-4.47,1.49-8.08,1.36-12.53l-.35-11.8c22.42,4.94,46.53-8.27,55.12-28.71-14.6,12.64-32.58,24.87-51.5,19.11l3.64-16.15c2.68-11.88,9.02-20.5,19.11-27.26,16.28-10.9,32.06-21.95,46.15-35.66,12.93-12.58,25.37-24.52,36.17-38.84l19.82-26.28,26.15-37.84c5.17-7.49,17.56-6.65,28.21-5.11,16.36,2.36,32.23,1.39,47.65-3.88,9.73-3.33,16.83-9.15,23.23-16.92,10.01-12.16,15.55-25.97,18.3-41.69l7.98-45.7c-18.5,1.41-35.58-6.09-44.7-22.77,7.42,2.15,13.43,3.84,20.68,3.05-15.72-5.69-25.72-20.62-25.55-37.76.1-9.4.07-18.17,5.66-26.9l2.1,9.65c1.41,6.48,4.39,12.31,9.65,16.54-1.03-10.84-2.14-20.9,1.32-31.02,5.47-16,18.13-29.79,34.91-35.1-1.64,16.56,5.57,29.8,18.65,37.98,7.26,4.55,12.7,10.21,15.29,19.06l9.32-11.81c21.07-26.67,64.86-48.13,97.82-58.06l31.57-9.51c57.85-14.66,116.62-38.73,158.94-83.02.52,22.29-11.64,48.11-25.62,63.4,12.95-8,22.11-20.32,28.64-34.36l16.4-42.52c4.61-11.96,9.3-23.74,17.49-33.45,16.04-19.03,37.86-25.38,61.59-33.52-7.75-1.62-15.53-1.09-24.66-.57,4.75-9.64,8.71-18.52,9.19-28.76l.95-20.02c-.5-13.42,1.45-25.99,7.38-38.15-.19-1.58-.82-3.4-1.64-4.36-15.75-7.98-31.93-10.26-49.37-10.76l-36.14-.92c-21.63-.55-42.36-4.39-62.96-10.91-12.48-3.95-23.61-8.98-35.51-14.68-28.24-13.51-53.73-30.84-77.63-51.3-12.05-10.31-20.64-23.1-29.84-37.18,41.22-12.34,100.83-9.22,142.2-1.04,44.28,8.76,79.41,19.81,117.16,44.74l21.74,14.36,39.01,23.94c7.93,4.87,17,6.12,25.77,5.84-20.33-12.83-38.82-25.73-57.52-40.11-30.13-23.17-70.31-47.39-107.15-55.78l-41.07-9.35c-19.16-19.78-32.39-44.63-37.12-73.09,33.25,4.83,63.93,12.73,93.81,24.74,35.66,14.34,82.12,40.75,106.04,69.94l33.78,41.22c7.85,9.58,24.49,29.78,32.91,30.83l46.6,5.79c13.07,1.62,27.51,3.74,38.2,11.76l41.67,31.28c12.06,9.05,22.43,19.43,32.15,30.73,6.03,7.01,6.2,17.49,1.91,19.62-.76.38-3.07-.07-3.84-.46l-18.5-9.51,6.41,9.52c3.68,5.47,8.25,9.2,14.25,13.65-4.75,20.01-21.23,37.7-42.05,40.87-14.84,2.26-28.41,5.26-39.82,15.54-14.75,13.28-6.75,28.92,2.78,44.77,5.96,9.91,10.57,19.36,14.64,30.95,11.55-3.05,21.96-7.6,32.21-13.23l54.8-30.11c7.84-4.31,14.9-10.16,23.76-12.2,24.07-5.54,46.92-12.46,69.4-22.65,6.45-2.92,13.71-4.49,20.57-5.42,7.21-.98,12.55,2.42,17.53,6.81,8.44,7.45,23.49,9.17,30.69,26.24l1.06,3.6c.21.7-2.62-.03-3.22-.46-6.26-4.5-14.13-5.42-20.77-.35-1.87-1.26-4.36-3.07-5.38-4.36-12.3-15.42-32.5-17.31-48.39-5.8-.37.45-1.25,1.5-1.08,1.3l10.9-1.69c13.21-2.05,25.13,1.78,34.73,11.02,14.73,14.19,14.89,29.46,13.58,29.12-4.76-1.23-11.68-11.23-25.03-10.06l-12.97,12.25c-11,10.39-31.84-2.36-42.49-1.79-7.85.42-15.14,3.61-22.28,5.79-26.49,8.11-52.44,44.27-77.72,60.28-10.77,6.8-60.84,16.21-60.05,11.13l3.39-21.64c.96-6.11.32-12.13-.49-18.26-1.63-12.41-6.82-23.58-14.84-32.92l-1.46-1.7-.42.41c6.57,19.87,7,40.33.94,60.19-.28.43-1.27,1.54-1.46,1.15l-.96-1.95c-3.66-18.34-11.64-34.79-24.81-48-8.63-8.3-18.66-13.73-29.67-18.25l11.8,11.21c12.25,11.63,21,26.18,26.48,42.44,3.9,11.59,5.71,23.11,6.98,35.49.31,3.03-2.58,5.9-4.61,7.43l-4.64,3.5c-1.21.31-.99.83.45,1.32l16.47-1.53c28.49-2.64,55.81-7.15,83.8-12.95l46.52-9.64c8.24-1.71,16.15-2.14,24.65-.36,22.28,4.66,44.21,5.44,66.64,1.55,10.97-1.9,21.37.85,29.2,8.79l8.37,10.18c.22.27-.31,2.67-.61,2.51l-1.69-.91c-8.01-4.31-16.85-6.22-26.08-6.72l-2.33-.13c-.39-.02-.37.37,0,.55l1.85.95c15.26,3.4,27.78,11.65,35.88,25.08,4.76,5.67,7.49,13.82,7,21.14l-.18,2.74c-.25,3.79-6.48-7.33-14.53-9.22-5.85-1.38-12.82,4.98-13.97,1.34-1.64-5.2-4.95-13.53-9.74-17.38-8.41-6.77-18.1-10.74-29.34-10.37,10.23,4.48,19.38,9.67,25.94,18.48,8.57,11.51,11.52,27.7,3.2,37.7-3.93-8.96-11.4-19.49-17.04-16.72-13.34,6.54-26.46-.07-37.67-9.37-4.79-3.97-10.38-7.09-16.55-8.39-8.29-1.75-16.77-3.34-25.29-3.13-11.93.29-23.25,2.86-34.22,7.44l-74.01,30.84-36.41,17.77c-14.83,7.24-30.44,16.38-43.72,25.67-.21.14-1.93-.03-2.82-.14l16.1-31.99-29.44,24.63c-4.1-31.82-20.66-57.76-46.79-74.59-7.53-4.85-14.82-9.04-24.16-10.94,14.81,9.42,26.41,20.9,35.24,35.91,4.32,7.34,8.11,14.88,9.95,23,1.47,6.48-.44,10.64-4.52,15.17-20.06,22.31-44.34,38.75-72.74,49.29-25.05,8.86-50.65,13.85-77.57,15.71-18.41,5.3-34.05,16.27-47.29,30.35-7.82,8.89-14.93,18.08-20.22,28.68l-15.03,30.09c-9.28,18.58-20.08,36.31-35.28,50.63-25.1,23.65-57.72,36.52-92.1,38.09l-49.11.14c-13.81.04-26.24,5.81-38.27,12.55s-22.5,17.18-30.88,29c-15.64,22.07-29.18,44.69-42.82,68.06-11.87,20.33-31.29,38-54.36,43.54-15.03,3.61-46.08,2.33-44.52-3.72ZM869.51,346.89c20.64-.34,38.69,2.43,59.25,5.97-32.64-15.77-65.38-27.23-100.07-38.28,18.15-1.23,36.18,3.14,54.41,8.1-19.83-13.14-40.86-22.96-62.91-31.92-42.19-17.14-79.61-18.63-124.84-13.96l15,11.9c16.76,11.76,33.63,22.23,51.46,32.44,16.11,9.22,32.95,15.1,50.76,20.36,18.84,3.4,37.05,5.72,56.94,5.39ZM1067.72,398.23c5.57-2.44,10.54-1.51,16.96,0l-9.08-15.86c-5.87-10.25-17.7-15.31-29.19-11.91-5.52,1.63-11.12,4.25-15.59,6.7,3.56,4.05,5.91,7.05,7.97,10.98,5.64,10.71,17.47,15.11,28.92,10.09ZM984.26,453.14c1.36,13.64,8.43,23.49,17.09,33.06-9.02-3.54-16.26-9.26-22.73-15.87-8.51-8.7-12.06-20.21-15.42-31.47-1.82,17.14,4.58,35.98,20,44.99,21.28,12.44,48.43,14.43,71.42,6.55-17.99-.24-34.39-2.54-48.65-12.39-10.12-5.99-16.49-15.01-21.71-24.87ZM882.7,541.19c9.18-15.89,21.08-28.33,35.56-39.27-18.12,5.48-31.72,18.26-39.25,35.08-4.01,9.85-7.2,19.44-8.93,30.06l12.62-25.87ZM580.91,717.43c14.5-13.85,30.21-23.66,47.34-33.27,25.48-13.96,51.85-23.83,79.06-34.1-18.78,3.17-35.98,8.12-53.85,13.45s-34.55,12.51-50.55,22.46c-33.58,20.88-58.74,53.87-67.09,93.41,11.68-23.57,25.14-44.4,45.1-61.96ZM724.85,824.01c14.13-7.44,27.6-14.29,43.13-17.14l52.27-9.58c13.81-1.68,26.6-4.75,39.67-9.3,45.3-15.74,75.51-29.97,82.94-82.15-16.29,31.03-49.39,54.34-82.94,65.56l18.4-17.03c6.49-7.44,12.55-14.83,15.63-24.66-27.97,30.16-65.32,44.51-103.82,56.47-24.49,7.61-47.18,19.12-65.29,37.84ZM443.21,906.34l-23.17.95-22.11-1.54c-4.35.24-8.51,1.72-10.91,5.27l-22.31,32.98,25.26-24.99c13.59-11.51,34.15-3.84,53.23-12.66Z"/>
      <path class="st0" d="M882.7,541.19l-12.62,25.87c1.73-10.62,4.92-20.21,8.93-30.06,7.53-16.81,21.13-29.59,39.25-35.08-14.48,10.93-26.38,23.37-35.56,39.27Z"/>
    </g>
    <g>
      <path d="M317.95,576.77c-38.14,54.99-57.34,113.33-60.86,180.09-1.11,20.95.73,39.44,3.7,61.05-16.92-40.29-19.79-82.78-15.94-126.7l-6.87,29.75c-6.25,27.09-8.2,54.15-7.61,82.02l2.96,32.18c7.56,2.7,14.86,4.33,20.22,9.03,9.37,8.2,16.82,18.41,17.68,31.26-5.47-5.66-9.77-11.49-15.71-15.92-23.75-17.69-56.83-14.38-76.57,7.32-20.62,22.68-16.82,63.17,9.87,80.25l11.45-6.29c-10.67-10.54-18.76-23.72-14.48-38.7l7.96,18.11c4.93,11.22,15.27,16.02,26.38,23.05l-13.65,1.27c-11.46,6.65-16.02,21.06-11.51,33.54,5.66,15.64,21.39,25.24,37.85,21.83,1.34-8.37,1.52-15.93,6.99-23.32l.44,16.52c.16,6.11,3.15,12.34,5.73,18.1,0,1.57-2.44,3.89-3.72,4.92l-15.28,12.26c-3.8-6.23-2.16-13.72-7.1-15.17l-21.36-6.27c2.12,15.82,8.87,29.29,16.5,43.02,1.25,2.25,1.41,4.9-.42,7.35-5.8-5.81-9.33-12.59-13.17-19.89-6.7-12.75-11.74-25.67-15.07-39.68-4.73-7.13-7.65-14.37-9.85-22.7l2.57-16.31-8.13-7.55c-27.24-25.31-27.65-66.91-3.02-94.32,7.96-8.85,17.62-14.64,29.41-18.7-20.6-73.37-6.24-168.6,24.86-236.98,22.95-50.45,54.97-96.14,96.53-133.74.07,4.92-3.76,7.97-6.88,11.54-45.18,51.7-75.64,113.37-90.34,180.62-6.94,31.78-8.43,63.86-4.29,96.61l2.62-14.35c7.03-38.5,17.65-75.85,34.66-111.19,10.36-21.53,21.34-41.55,35.4-60.74,18.09-24.7,36.83-47.78,59.49-68.57,35.38-32.47,76.25-57.24,120.18-76.84,48.72-21.74,101.01-33.4,154.25-36.01l31.6-.28,28.67,2.23c18,1.4,35.27,4.01,52.67,8.56l30.14,7.88,27.18,9.56c1.38,1.65-.18,1.7-1.35,1.01l-18.09-5.21c-23.42-6.74-47.32-10.14-71.6-13.08l-20.12-1.29h-25.94s-18.46.77-18.46.77c-25.13,2.41-49.42,5.58-73.96,12.03-26.47,6.96-51.21,16.23-75.81,28.33-27.64,13.59-52.08,31.31-75.65,51.1-11.6,9.74-21.26,20.41-31.4,31.69-33.16,36.9-56.92,86.24-68.08,134.59l-5.72,33.76,9.12-27.14c9.76-29.05,23.39-56.05,40.27-81.57,2.06-3.11,3.73-5.62,7.12-7.68l-16.24,33.41c-17.22,35.43-30.27,91.92-30.23,131.88.03,30.2,3.53,60.21,14.92,88.26-10.45-52.21-9.14-105.87,8.72-155.78,19.28-53.85,54.91-100.21,101.42-133.43,33.06-23.61,80.34-43.58,121.09-48.98-2.4,1.79-5.05,2.91-8.32,3.87-45.71,13.44-86.96,37.48-121.19,70.45l-7.12,7.16c-18.57,18.65-33.08,39.82-45.69,63.35-21.08,39.36-32.06,83.65-32.17,128.21-.03,13.2,2.09,25.2,4.39,37.92,4.47,24.68,14.42,46.94,29.11,68.03-6.97,3.86-15.82,4.76-19.82,11.24l-23.01,37.24-5.59-12.39c-1.56-3.46-2.84-5.36-.52-9.08,8.54-13.69,4.72-36.79-5.26-49.21-11.2-13.93-28.99-21.75-46.88-20.82-9.37.49-16.67,6.44-23.7,11.22l-7.73-4.86c9.03-9.96,21.98-17.15,35.48-17.05-15.4-67.92-11.08-127.18,11.58-191.78,5.62-16.03,13.35-30.13,20.26-45.87Z"/>
      <path d="M336.18,385.23c-16.39,19.92-6.8,40.39-9.97,40.43-4.72.06-17.89-5.88-29.67,6.37-7.17,7.46-9.49,17.87-5.6,28.17l4.36,11.54c-10.4,5.39-17.67,11.92-26.01,21.11.75-10.15,8.03-17.2,12.81-25.6-6.2-13.34-6.65-29.23,1.89-41.24,6.59-9.28,17.19-13.36,28.52-15.8-.1-13.87,4.15-26.36,13.16-36.49,13.94-15.68,33.39-22.93,54.39-19.93,13.07,1.86,24.84,7.89,32.41,19.16,6.41-4.43,13.01-8.81,20.89-10.54,13.95-3.05,26.97,3.74,35.09,15.56l39.64-11.84c35.26-8.92,70.7-12.82,106.91-14.98l24.94.08,13.25,1.17c-.98.85-2.5,1.42-4.24,1.45-37.87.66-74.38,6.63-110.89,16.03-28.65,7.37-73.35,22.51-98.21,36.01l-54.26,29.46c21.62-19.25,45.59-33.5,70.08-47.68.83-.48,1.98-1.56,2.13-2.25,1.14-5.28-18.81-17.31-33.42-6.06-5.37,4.14-7.66,9.9-11.71,16.81-6.65-14.83-17.65-24.25-32.86-27-16.8-3.05-32.81,2.92-43.62,16.06Z"/>
      <path d="M625.75,444.67l-19.74.21c-23.18.25-64.96,8.72-87.34,16.75l-35.2,12.62c4.58-3.93,9.31-6.72,14.6-9.2,19.58-9.17,38.79-17.65,59.97-23.02,34.76-8.8,69.66-11.97,105.9-9.78l-13.7,11.5,19.76,1.99c13.02,1.31,26.06,1.81,39.1,6.75-29.51,1.14-57.46,1.01-85.91,5.67-8.25,1.35-15.56,3.59-24.36,3.21,9.65-6.56,18.25-9.54,26.93-16.7Z"/>
      <path d="M403.79,740.44l-1.54,9.78c-1.13-3.83-2.09-7.42-2.27-11.22-3.12-66.4,31.67-128.03,89.55-160.64,17.02-9.59,35.06-18.03,55.25-21.95-30.12,12.79-57.72,27.55-80.96,50.41-34.77,34.21-58,84.01-60.03,133.61Z"/>
      <path d="M407.32,858.47c-3.68.25-6.59-2.46-8.77-5.23-14.76-18.72-25.28-40.45-29.39-64.39-5.52-32.14-1.75-64.73,11.19-95.21-1.58,13.65-4.74,26.54-5.18,40.3-.69,21.86.58,42.49,6.48,63.46,6.02,21.42,14.62,40.77,25.68,61.06Z"/>
      <path d="M174.03,830.47c.41,2.28-1.26,4.73-2.52,5-1.94.42-4.31-.96-4.95-3.36-9.93-37.21-11.2-75.57-5.18-113.62,1.34-9.17,2.3-17.29,5.46-25.8l-1.16,28.94-.05,29.82c-.04,26.59,3.57,52.18,8.39,79.01Z"/>
      <path d="M298.3,933.41c2.77-22.94-16.09-40.15-39.3-39.74,6.1-5.36,13.93-6.5,20.66-5.38,13.19,2.19,22.87,11.17,26.58,22.44,4.22,12.85,1.52,27.03-9.86,35.87-.19-4.36,1.38-8.74,1.91-13.19Z"/>
    </g>
  </g>
</svg>